<?xml version="1.0" encoding="UTF-8"?>
<svg id="Capa_1" xmlns="http://www.w3.org/2000/svg" viewBox="0 0 200 200">
  <defs>
    <style>
      .cls-1 {
        fill: #cf0;
      }
    </style>
  </defs>
  <path class="cls-1" d="M115.57,175.44c-10.09,0-15.94-5.86-16.29-13.81-.29-6.54-.75-13.08-1.13-19.61-.38-6.51-.76-13.01-1.11-19.52-.12-2.18-.35-4.38-.16-6.54.85-9.65,11.82-15.5,20.21-10.68,4.44,2.54,8.62,5.53,12.9,8.34,8.39,5.51,16.8,11.01,25.16,16.56,8.79,5.83,8.22,18.74-1.01,23.83-2.5,1.38-5.26,1.61-8.01,1.92-3.19.36-6.38.73-9.56,1.08-1.95.21-3.49,1.11-4.65,2.67-2.48,3.35-4.94,6.71-7.44,10.05-2.8,3.74-6.54,5.68-8.92,5.71ZM113.31,168.31c2.34,0,4.11-1.08,5.47-2.92,2.44-3.29,4.87-6.6,7.31-9.88,2.31-3.11,5.35-5.04,9.22-5.53,4.34-.54,8.69-.96,13.01-1.56,1.11-.15,2.27-.61,3.19-1.24,3.84-2.65,3.67-8.34-.33-11.04-4.3-2.91-8.66-5.72-13-8.57-7.99-5.25-15.98-10.51-23.98-15.75-2.28-1.49-4.64-1.44-6.97-.09-2.39,1.39-3.47,3.55-3.34,6.25.25,5.04.62,10.08.91,15.12.57,9.6,1.12,19.21,1.67,28.81.21,3.68,3.1,6.4,6.82,6.4Z"/>
  <path class="cls-1" d="M95.94,39.9c0-3.86-.03-7.72.01-11.58.02-2.34,1.5-3.8,3.69-3.76,1.71.03,3.08,1.17,3.4,2.84.07.37.11.75.11,1.12,0,7.69.01,15.37,0,23.06,0,2.02-1.04,3.38-2.79,3.79-1.98.47-3.93-.77-4.3-2.77-.11-.6-.11-1.22-.11-1.83,0-3.62,0-7.24,0-10.86Z"/>
  <path class="cls-1" d="M73.11,66.36c-1.11.05-1.97-.49-2.71-1.23-5.46-5.44-10.92-10.88-16.36-16.36-1.6-1.61-1.65-3.89-.22-5.32,1.5-1.49,3.7-1.4,5.37.27,5.48,5.47,10.95,10.95,16.42,16.43,1.15,1.15,1.47,2.69.89,4.04-.6,1.39-1.84,2.19-3.4,2.18Z"/>
  <path class="cls-1" d="M77.02,115.63c-.48.87-.8,1.9-1.47,2.58-5.41,5.51-10.89,10.95-16.36,16.4-1.35,1.34-2.93,1.62-4.4.91-1.33-.65-2.2-2.04-1.94-3.52.15-.82.54-1.74,1.12-2.33,5.49-5.58,11.03-11.1,16.58-16.62,1.15-1.14,2.5-1.49,4.04-.85,1.38.58,2.19,1.81,2.19,3.29.08.05.17.09.25.14Z"/>
  <path class="cls-1" d="M126.37,66.39c-2.07-.08-3.2-.79-3.79-2.22-.61-1.48-.3-2.83.81-3.95,3.07-3.1,6.17-6.19,9.26-9.27,2.41-2.41,4.83-4.82,7.24-7.24,1.65-1.65,3.87-1.75,5.37-.25,1.45,1.46,1.38,3.7-.23,5.31-5.42,5.44-10.85,10.86-16.28,16.29-.79.79-1.69,1.39-2.37,1.33Z"/>
  <path class="cls-1" d="M148.75,85.61c3.89,0,7.79,0,11.68,0,2.17,0,3.72,1.46,3.72,3.49,0,2.05-1.53,3.59-3.65,3.6-7.89.01-15.78.01-23.67,0-2.09,0-3.69-1.64-3.65-3.62.05-2,1.57-3.46,3.68-3.46,3.96-.01,7.92,0,11.89,0Z"/>
  <path class="cls-1" d="M50.47,85.61c3.89,0,7.79,0,11.68,0,2.16,0,3.73,1.48,3.74,3.5,0,2.01-1.56,3.58-3.68,3.59-7.89.02-15.78.02-23.67,0-2.13,0-3.65-1.58-3.61-3.63.03-2.02,1.54-3.45,3.66-3.46,3.96,0,7.92,0,11.89,0Z"/>
</svg>